# xmcd CD database file
#
# Track frame offsets:
#	150
#	10428
#	32402
#	46367
#	70750
#	95433
#
# Disc length: 2151 seconds
#
# Revision: 0
# Processed by: cddbd v1.5PL3 Copyright (c) Steve Scherf et al.
# Submitted via: CDex 1.51
#
DISCID=43086506
DTITLE=Mel Torme' - Live At The Playboy Jazz Festival
DYEAR=2002
DGENRE=Jazz
TTITLE0=Opus 1
TTITLE1=Medley: I Had The Craziest Dream - Darn That Dream
TTITLE2=I'm Gonna Go Fishin'
TTITLE3=Medley: Sophisticated Lady - I Didn't Know About You
TTITLE4=It Don't Mean A Thing
TTITLE5=Medley: Stompin' At The Savoy - Don't Be That Way - And The Angels Sing - Why Don't You Do Right? - Avalon - Sing, Sing, SIng
EXTD=YEAR: 2002
EXTT0=
EXTT1=
EXTT2=
EXTT3=
EXTT4=
EXTT5=
PLAYORDER=
